<svg xmlns="http://www.w3.org/2000/svg" viewBox="0 0 32 32">
  <defs>
    <linearGradient id="g" x1="3" x2="29" y1="3" y2="29" gradientUnits="userSpaceOnUse">
      <stop offset="0" stop-color="#3457b8"/>
      <stop offset="1" stop-color="#26397e"/>
    </linearGradient>
  </defs>
  <rect width="32" height="32" rx="9" fill="url(#g)"/>
  <path d="M6.4 18.6 L8.7 13.7 C9 13.1 9.6 12.7 10.3 12.7 H20.4 C21 12.7 21.5 13 21.8 13.5 L24.1 17.3 L25.4 17.8 C25.9 18 26.2 18.5 26.2 19 V20.4 H5.8 V19.2 C5.8 18.9 6 18.7 6.4 18.6 Z" fill="#fff" fill-opacity="0.95"/>
  <path d="M11 13.9 L9.4 17.2 H15.3 V13.9 Z M16.5 13.9 V17.2 H22 L20 13.9 Z" fill="url(#g)"/>
  <circle cx="24.3" cy="18.9" r="1.15" fill="#e0492f"/>
  <circle cx="11" cy="20.8" r="2.9" fill="#26397e" stroke="#fff" stroke-width="1.5"/>
  <circle cx="21" cy="20.8" r="2.9" fill="#26397e" stroke="#fff" stroke-width="1.5"/>
</svg>
